<svg id="Layer_1" data-name="Layer 1" xmlns="http://www.w3.org/2000/svg" viewBox="0 0 150 150"><defs><style>.cls-1{fill:#fff;stroke:#000;stroke-miterlimit:10;stroke-width:5px;}</style></defs><title>analytics</title><path class="cls-1" d="M135.74,10.53A11.79,11.79,0,0,0,124,22.24a11.58,11.58,0,0,0,2.33,6.95L103.47,61.68a11.57,11.57,0,0,0-3-.43,11.84,11.84,0,0,0-11.08,7.8H60.61A11.76,11.76,0,0,0,37.77,73a11.58,11.58,0,0,0,2.33,6.95L17.26,112.4a11.57,11.57,0,0,0-3-.43A11.7,11.7,0,1,0,26,123.68a11.58,11.58,0,0,0-2.33-6.95L46.53,84.23a11.57,11.57,0,0,0,3,.43,11.84,11.84,0,0,0,11.08-7.8H89.39A11.76,11.76,0,0,0,112.23,73,11.58,11.58,0,0,0,109.9,66l22.84-32.49a11.57,11.57,0,0,0,3,.43,11.7,11.7,0,1,0,0-23.41Zm0,7.8a3.9,3.9,0,1,1-3.92,3.9A3.85,3.85,0,0,1,135.74,18.34ZM49.53,69.05A3.9,3.9,0,1,1,45.61,73,3.85,3.85,0,0,1,49.53,69.05Zm50.95,0A3.9,3.9,0,1,1,96.55,73,3.85,3.85,0,0,1,100.47,69.05ZM14.26,119.77a3.9,3.9,0,1,1-3.92,3.9A3.85,3.85,0,0,1,14.26,119.77Z"/></svg>