<svg id="Layer_1" data-name="Layer 1" xmlns="http://www.w3.org/2000/svg" viewBox="0 0 150 150"><defs><style>.cls-1{fill:#fff;stroke:#000;stroke-miterlimit:10;stroke-width:3px;}</style></defs><title>brain</title><path class="cls-1" d="M43.84,69.37l14.5-9.45V37.08L54.67,34a5.4,5.4,0,0,0-2-4.49,5.27,5.27,0,0,0-7.51,1,5.56,5.56,0,0,0,1,7.68c-.59-.46-1.15-.91,0,0s.6.46,0,0a5.4,5.4,0,0,0,4.84.9l1.47,1.12V56.5L38,65.94V89.51l14.5,6.37v16.76l-2.41,2.3a5.36,5.36,0,0,0-4.7,1.42,5.56,5.56,0,0,0-.17,7.75,5.21,5.21,0,0,0,9-4.53l4.09-4.2V91.73l-14.5-6.37Z"/><path class="cls-1" d="M45.41,116.37Z"/><path class="cls-1" d="M127.94,43.19V23L91.25,1.25,75.33,10.67,58.93,1.25,21.6,23V43.19L2.27,54.6V98L21.6,109.45V127L59,148.75l16.27-9.45,15.87,9.45L127.94,127V109.45L147.27,98V54.6ZM59,141.32l-30.63-18v-13.7l4.83-2.26a5.5,5.5,0,0,0,5,.14c-.67.33-1.29.65.05,0s.7-.33,0,0a5.54,5.54,0,0,0,2.54-7.31,5.35,5.35,0,0,0-7.19-2.58,5.45,5.45,0,0,0-3,4L25.59,104,9,94.32V80.41h4.65c1,1,2.56,2.33,4.35,2.33a5.42,5.42,0,0,0,5.39-5.45A5.69,5.69,0,0,0,18,71.53c-1.79,0-3.36,2-4.34,2H9V58.32l16.45-9.58,5.2,2.88a5.51,5.51,0,0,0,2.76,4.12c-.65-.37-1.28-.73,0,0s.66.37,0,0a5.36,5.36,0,0,0,7.33-2.15,5.54,5.54,0,0,0-2.11-7.45A5.7,5.7,0,0,0,33.63,46l-5.26-2.85V26.68L59,8.68l12.87,7.56V73.53H67.74c-1,0-2.56-2-4.34-2A5.57,5.57,0,0,0,58,77.18a5.45,5.45,0,0,0,5.39,5.49c1.79,0,3.36-1.28,4.35-2.26h4.54l-.41,6.46v46.86ZM124.66,104l-4.65-2.4a5.21,5.21,0,0,0-9.94-1.38,5.55,5.55,0,0,0,2.57,7.31,4.33,4.33,0,0,0,4.38-.13l4.14,2.26v13.7l-30.63,18-12.87-7.59V86.85l.48-5.95,5.06-.49c1,1,2.56,2.33,4.35,2.33A5.42,5.42,0,0,0,93,77.29a5.69,5.69,0,0,0-5.39-5.76c-1.79,0-3.36,2-4.34,2H77.67V16.24L90.54,8.68l30.63,18V43.15L116.62,46a4.79,4.79,0,0,0-4.62.15,5.5,5.5,0,0,0-2,7.45,5.43,5.43,0,0,0,7.39,2.15,5.51,5.51,0,0,0,2.76-4.12l4.58-2.88,15.76,9.58V73.53h-3.23c-1,0-2.56-2-4.34-2a5.57,5.57,0,0,0-5.39,5.63,5.45,5.45,0,0,0,5.39,5.49c1.79,0,3.36-1.28,4.35-2.26h3.23V94.32Z"/><path class="cls-1" d="M111.58,46.53Z"/><path class="cls-1" d="M112.26,46.15l.52-.29Z"/><path class="cls-1" d="M111.73,46.44l-.16.09Z"/><path class="cls-1" d="M112.26,46.15l-.52.29Z"/><path class="cls-1" d="M112.94,45.76Z"/><path class="cls-1" d="M112.78,45.85l.16-.09Z"/><path class="cls-1" d="M117.34,97.6Z"/><path class="cls-1" d="M97,40.24l2.18-1.12a6.09,6.09,0,0,0,5.18-.9,5.58,5.58,0,0,0,1.17-7.69,5.23,5.23,0,0,0-7.47-1A6,6,0,0,0,95.53,34L91.2,37.08V59.93l14.5,9.45v16L91.2,91.73v23.66L96,119.6a5.71,5.71,0,0,0,1.83,4.69c-.54-.52-.95-1,.12,0s.6.52.06,0a5.37,5.37,0,0,0,7.65-.17,5.56,5.56,0,0,0-.15-7.75,6.88,6.88,0,0,0-5.42-1.42L97,112.64V95.88l14.5-6.37V65.94L97,56.5Z"/><path class="cls-1" d="M97.59,30Z"/><path class="cls-1" d="M98.14,29.53l-.55.43Z"/><path class="cls-1" d="M98.14,29.53Z"/></svg>